<?xml version="1.0" encoding="UTF-8"?>
<svg width="256" height="256" viewBox="0 0 256 256" xmlns="http://www.w3.org/2000/svg">
  <defs>
    <linearGradient id="brainGrad" x1="0%" y1="0%" x2="100%" y2="100%">
      <stop offset="0%" style="stop-color:#8B5CF6"/>
      <stop offset="100%" style="stop-color:#6366F1"/>
    </linearGradient>
    <filter id="shadow" x="-20%" y="-20%" width="140%" height="140%">
      <feDropShadow dx="0" dy="4" stdDeviation="8" flood-color="#000" flood-opacity="0.3"/>
    </filter>
  </defs>
  <circle cx="128" cy="128" r="120" fill="url(#brainGrad)" filter="url(#shadow)"/>
  <g transform="translate(128,128) scale(2.5)" fill="none" stroke="white" stroke-width="3" stroke-linecap="round" stroke-linejoin="round">
    <path d="M-24 0c0-12 8-20 16-20s12 6 12 12c0-8 4-16 16-16s16 10 16 20c0 8-4 14-10 18
             c4 4 6 10 6 16c0 10-8 18-18 18c-6 0-10-2-14-6c-4 4-8 6-14 6c-10 0-18-8-18-18
             c0-6 2-12 6-16c-6-4-10-10-10-18z"/>
    <path d="M0-20v56M-16 0h32" stroke-width="2" opacity="0.5"/>
    <circle cx="-12" cy="-8" r="3" fill="white" opacity="0.7"/>
    <circle cx="12" cy="-8" r="3" fill="white" opacity="0.7"/>
    <circle cx="0" cy="12" r="4" fill="white" opacity="0.7"/>
  </g>
</svg>
